<svg width="155" height="58" viewBox="0 0 155 58" fill="none" xmlns="http://www.w3.org/2000/svg">
<g clip-path="url(#clip0_1_2)">
<path d="M30.1108 26.4327C29.9159 25.833 29.3693 25.4166 28.7392 25.3883L21.1734 25.0464L18.5094 17.9559C18.2877 17.3658 17.723 16.9746 17.0925 16.9746C16.462 16.9746 15.8973 17.3658 15.6756 17.9559L13.0117 25.0464L5.44588 25.3883C4.81575 25.4166 4.26918 25.833 4.07418 26.4327C3.87922 27.0324 4.07684 27.6907 4.5697 28.0837L10.4898 32.8076L8.4771 40.1097C8.30987 40.7177 8.53617 41.3655 9.04663 41.7364C9.55729 42.107 10.2436 42.1225 10.7703 41.7752L17.0925 37.6047L23.4146 41.7753C23.9414 42.1225 24.6277 42.107 25.1383 41.7365C25.6488 41.366 25.875 40.7177 25.7076 40.1098L23.6953 32.8076L29.6154 28.0837C30.1082 27.6906 30.3058 27.0323 30.1108 26.4327Z" fill="#FACD22"/>
<path d="M81.8459 24.8409C81.5498 23.93 80.7195 23.2975 79.7625 23.2546L68.2704 22.7352L64.2239 11.9651C63.8873 11.0689 63.0296 10.4746 62.0718 10.4746C61.1141 10.4746 60.2564 11.0689 59.9197 11.9651L55.8733 22.7352L44.3812 23.2546C43.4241 23.2975 42.5939 23.93 42.2977 24.8409C42.0016 25.7518 42.3017 26.7517 43.0504 27.3487L52.0426 34.5241L48.9855 45.6156C48.7315 46.5391 49.0752 47.523 49.8506 48.0865C50.6262 48.6494 51.6687 48.6728 52.4688 48.1454L62.0718 41.8106L71.6747 48.1455C72.4749 48.6728 73.5173 48.6494 74.293 48.0866C75.0684 47.5238 75.412 46.5391 75.1577 45.6156L72.1011 34.5241L81.0933 27.3487C81.842 26.7516 82.1421 25.7517 81.8459 24.8409Z" fill="#FACD22"/>
<path d="M149.201 23.0104C148.789 21.7416 147.632 20.8607 146.299 20.8009L130.292 20.0775L124.656 5.07608C124.187 3.82775 122.992 3 121.658 3C120.324 3 119.13 3.82775 118.661 5.07608L113.025 20.0775L97.0177 20.8009C95.6845 20.8607 94.5282 21.7416 94.1156 23.0104C93.7031 24.2792 94.1212 25.672 95.164 26.5035L107.689 36.498L103.431 51.9469C103.077 53.2333 103.556 54.6037 104.636 55.3886C105.716 56.1727 107.168 56.2053 108.283 55.4706L121.658 46.6472L135.034 55.4708C136.149 56.2053 137.601 56.1727 138.681 55.3887C139.761 54.6048 140.24 53.2333 139.885 51.947L135.628 36.498L148.153 26.5035C149.196 25.6719 149.614 24.2791 149.201 23.0104Z" fill="#FACD22"/>
</g>
<defs>
<clipPath id="clip0_1_2">
<rect width="155" height="58" fill="white"/>
</clipPath>
</defs>
</svg>
