<svg width="155" height="58" viewBox="0 0 155 58" fill="none" xmlns="http://www.w3.org/2000/svg">
<g clip-path="url(#clip0_1_36)">
<path d="M124.889 26.4327C125.084 25.833 125.631 25.4166 126.261 25.3883L133.827 25.0464L136.491 17.9559C136.712 17.3658 137.277 16.9746 137.907 16.9746C138.538 16.9746 139.103 17.3658 139.324 17.9559L141.988 25.0464L149.554 25.3883C150.184 25.4166 150.731 25.833 150.926 26.4327C151.121 27.0324 150.923 27.6907 150.43 28.0837L144.51 32.8076L146.523 40.1097C146.69 40.7177 146.464 41.3655 145.953 41.7364C145.443 42.107 144.756 42.1225 144.23 41.7752L137.907 37.6047L131.585 41.7753C131.059 42.1225 130.372 42.107 129.862 41.7365C129.351 41.366 129.125 40.7177 129.292 40.1098L131.305 32.8076L125.385 28.0837C124.892 27.6906 124.694 27.0323 124.889 26.4327Z" fill="#FACD22"/>
<path d="M73.1541 24.8409C73.4502 23.93 74.2805 23.2975 75.2375 23.2546L86.7295 22.7352L90.776 11.9651C91.1127 11.0689 91.9704 10.4746 92.9282 10.4746C93.8859 10.4746 94.7436 11.0689 95.0803 11.9651L99.1267 22.7352L110.619 23.2546C111.576 23.2975 112.406 23.93 112.702 24.8409C112.998 25.7518 112.698 26.7517 111.95 27.3487L102.957 34.5241L106.014 45.6155C106.269 46.5391 105.925 47.523 105.149 48.0865C104.374 48.6494 103.331 48.6728 102.531 48.1454L92.9282 41.8106L83.3252 48.1454C82.5251 48.6728 81.4827 48.6494 80.707 48.0866C79.9316 47.5238 79.588 46.5391 79.8423 45.6156L82.8989 34.5241L73.9067 27.3487C73.158 26.7516 72.8579 25.7517 73.1541 24.8409Z" fill="#FACD22"/>
<path d="M5.79873 23.0104C6.21119 21.7416 7.36766 20.8607 8.70072 20.8009L24.7077 20.0775L30.3439 5.07608C30.8129 3.82775 32.0075 3 33.3416 3C34.6756 3 35.8703 3.82775 36.3392 5.07608L41.9754 20.0775L57.9823 20.8009C59.3155 20.8607 60.4718 21.7416 60.8844 23.0104C61.2969 24.2792 60.8788 25.672 59.836 26.5035L47.311 36.498L51.5692 51.9469C51.923 53.2333 51.4442 54.6037 50.3642 55.3886C49.2838 56.1727 47.8318 56.2053 46.7174 55.4706L33.3416 46.6472L19.9659 55.4708C18.8514 56.2053 17.3994 56.1727 16.319 55.3887C15.239 54.6048 14.7604 53.2333 15.1146 51.947L19.3721 36.498L6.84699 26.5035C5.80425 25.6719 5.38615 24.2791 5.79873 23.0104Z" fill="#FACD22"/>
</g>
<defs>
<clipPath id="clip0_1_36">
<rect width="155" height="58" fill="white" transform="matrix(-1 0 0 1 155 0)"/>
</clipPath>
</defs>
</svg>
